<svg width="32" height="32" viewBox="0 0 46 46" aria-label="IE logo." fill="none" xmlns="http://www.w3.org/2000/svg"><path d="M6.133 6.663h1.991c.539 0 .808.212.808.688V38.65c0 .476-.27.688-.808.688h-1.99v.53h9.901v-.53h-1.991c-.538 0-.807-.212-.807-.688V7.35c0-.476.269-.688.807-.688h1.991v-.53H6.133v.53Z" fill="#222020"/><path d="M13.821 6.663h1.991c.538 0 .807.212.807.688V38.65c0 .476-.269.688-.807.688h-1.991v.53h25.238l.808-12.074h-.43c-1.023 8.049-3.445 11.544-10.763 11.544H20.87V23.08h7.749c1.56 0 2.852 2.172 2.852 5.084v1.165h.592v-12.71h-.592v.477c0 3.178-1.184 5.455-2.852 5.455h-7.75V6.663h7.696c7.05 0 8.987 3.707 10.01 10.485h.43l-.808-11.015H13.821v.53Z" fill="#222020"/><path fill-rule="evenodd" clip-rule="evenodd" d="M44.296 1.77H1.725V0H46v44.275h-1.704V1.769ZM1.704 44.23V8.847H0V46h37.287v-1.77H1.704Z" fill="#222020"/></svg>